<svg id="proteinDrawer" viewBox="0 0 776 120" width="776" height="100%" background="#ff0000" xmlns="http://www.w3.org/2000/svg"><desc>Created with Snap</desc><defs><linearGradient x1="0" y1="0" x2="1" y2="0" id="linearGradientSl9sfqxdq9"><stop offset="0%" stop-color="#ffffff"></stop><stop offset="100%" stop-color="#ffcc00"></stop></linearGradient><linearGradient x1="0" y1="0" x2="1" y2="0" id="linearGradientSl9sfqxdqb"><stop offset="0%" stop-color="#ffcc00"></stop><stop offset="100%" stop-color="#ffffff"></stop></linearGradient><linearGradient x1="0" y1="0" x2="1" y2="0" id="linearGradientSl9sfqxdqm"><stop offset="0%" stop-color="#ffffff"></stop><stop offset="100%" stop-color="#ffcc00"></stop></linearGradient><linearGradient x1="0" y1="0" x2="1" y2="0" id="linearGradientSl9sfqxdqo"><stop offset="0%" stop-color="#ffcc00"></stop><stop offset="100%" stop-color="#ffffff"></stop></linearGradient><linearGradient x1="0" y1="0" x2="1" y2="0" id="linearGradientSl9sfqxdqz"><stop offset="0%" stop-color="#ffffff"></stop><stop offset="100%" stop-color="#009933"></stop></linearGradient><linearGradient x1="0" y1="0" x2="1" y2="0" id="linearGradientSl9sfqxdq11"><stop offset="0%" stop-color="#009933"></stop><stop offset="100%" stop-color="#ffffff"></stop></linearGradient><linearGradient x1="0" y1="0" x2="1" y2="0" id="linearGradientSl9sfqxdq1a"><stop offset="0%" stop-color="#ffffff"></stop><stop offset="100%" stop-color="#008132"></stop></linearGradient><linearGradient x1="0" y1="0" x2="1" y2="0" id="linearGradientSl9sfqxdq1c"><stop offset="0%" stop-color="#008132"></stop><stop offset="100%" stop-color="#ffffff"></stop></linearGradient><linearGradient x1="0" y1="0" x2="1" y2="0" id="linearGradientSl9sfqxdq1n"><stop offset="0%" stop-color="#ffffff"></stop><stop offset="100%" stop-color="#009933"></stop></linearGradient><linearGradient x1="0" y1="0" x2="1" y2="0" id="linearGradientSl9sfqxdq1p"><stop offset="0%" stop-color="#009933"></stop><stop offset="100%" stop-color="#ffffff"></stop></linearGradient><linearGradient x1="0" y1="0" x2="1" y2="0" id="linearGradientSl9sfqxdq1y"><stop offset="0%" stop-color="#ffffff"></stop><stop offset="100%" stop-color="#008132"></stop></linearGradient><linearGradient x1="0" y1="0" x2="1" y2="0" id="linearGradientSl9sfqxdq20"><stop offset="0%" stop-color="#008132"></stop><stop offset="100%" stop-color="#ffffff"></stop></linearGradient><linearGradient x1="0" y1="0" x2="1" y2="0" id="linearGradientSl9sfqxdq2b"><stop offset="0%" stop-color="#ffffff"></stop><stop offset="100%" stop-color="#008132"></stop></linearGradient><linearGradient x1="0" y1="0" x2="1" y2="0" id="linearGradientSl9sfqxdq2d"><stop offset="0%" stop-color="#008132"></stop><stop offset="100%" stop-color="#ffffff"></stop></linearGradient><linearGradient x1="0" y1="0" x2="1" y2="0" id="linearGradientSl9sfqxdq2o"><stop offset="0%" stop-color="#ffffff"></stop><stop offset="100%" stop-color="#008132"></stop></linearGradient><linearGradient x1="0" y1="0" x2="1" y2="0" id="linearGradientSl9sfqxdq2q"><stop offset="0%" stop-color="#008132"></stop><stop offset="100%" stop-color="#ffffff"></stop></linearGradient><linearGradient x1="0" y1="0" x2="1" y2="0" id="linearGradientSl9sfqxdq31"><stop offset="0%" stop-color="#ffffff"></stop><stop offset="100%" stop-color="#008132"></stop></linearGradient><linearGradient x1="0" y1="0" x2="1" y2="0" id="linearGradientSl9sfqxdq33"><stop offset="0%" stop-color="#008132"></stop><stop offset="100%" stop-color="#ffffff"></stop></linearGradient><linearGradient x1="0" y1="0" x2="1" y2="0" id="linearGradientSl9sfqxdq3e"><stop offset="0%" stop-color="#ffffff"></stop><stop offset="100%" stop-color="#008132"></stop></linearGradient><linearGradient x1="0" y1="0" x2="1" y2="0" id="linearGradientSl9sfqxdq3g"><stop offset="0%" stop-color="#008132"></stop><stop offset="100%" stop-color="#ffffff"></stop></linearGradient><linearGradient x1="0" y1="0" x2="1" y2="0" id="linearGradientSl9sfqxdq3r"><stop offset="0%" stop-color="#ffffff"></stop><stop offset="100%" stop-color="#008132"></stop></linearGradient><linearGradient x1="0" y1="0" x2="1" y2="0" id="linearGradientSl9sfqxdq3t"><stop offset="0%" stop-color="#008132"></stop><stop offset="100%" stop-color="#ffffff"></stop></linearGradient></defs><defs><filter id="glow" x="-20%" y="-20%" width="150%" height="150%"><feGaussianBlur stdDeviation="3 3" result="glow"></feGaussianBlur><feMerge><feMergeNode in="glow"></feMergeNode><feMergeNode in="glow"></feMergeNode><feMergeNode in="glow"></feMergeNode></feMerge></filter><style type="text/css"> text { font-family: arial; font-weight:bold; } </style></defs><g id="protein" transform="matrix(1,0,0,1,0,10)"><rect x="0" y="33" width="676" height="6" fill="#bbbbbb" style=""></rect><g id="B-0-0" style="cursor:pointer"><rect x="3" y="0" width="17" height="72" fill="none" style=""></rect><rect x="3" y="31" width="17" height="10" fill="#ff00ff" style=""></rect></g><g id="B-0-1" style="cursor:pointer"><rect x="21" y="0" width="6" height="72" fill="none" style=""></rect></g><g id="B-0-2" style="cursor:pointer"><rect x="28" y="0" width="34" height="72" fill="url('#linearGradientSl9sfqxdq9')" stroke="#ffcc00" style="stroke-width: 0.5;"></rect><rect x="28" y="0" width="34" height="72" fill="url('#linearGradientSl9sfqxdqb')" stroke="none" style="stroke-width: 0.5;" transform="matrix(0.7941,0,0,0.9028,9.2647,3.5)"></rect><text x="41" y="36" fill="#ffffff" style="filter: url(&quot;#glow&quot;); text-anchor: middle; font-size: 12px;" transform="matrix(0,1,-1,0,77,-5)">ANATO</text><text x="41" y="36" fill="#0000ff" style="text-anchor: middle; font-size: 12px;" transform="matrix(0,1,-1,0,77,-5)">ANATO</text></g><g id="B-0-3" style="cursor:pointer"><rect x="63" y="0" width="39" height="72" fill="none" style=""></rect></g><g id="B-0-4" style="cursor:pointer" transform="matrix(1,0,0,1,0,0)"><rect x="103" y="0" width="32" height="72" fill="url('#linearGradientSl9sfqxdqm')" stroke="#ffcc00" style="stroke-width: 0.5;"></rect><rect x="103" y="0" width="32" height="72" fill="url('#linearGradientSl9sfqxdqo')" stroke="none" style="stroke-width: 0.5;" transform="matrix(0.7813,0,0,0.9028,26.0313,3.5)"></rect><text x="115" y="36" fill="#ffffff" style="filter: url(&quot;#glow&quot;); text-anchor: middle; font-size: 12px;" transform="matrix(0,1,-1,0,151,-79)">ANATO</text><text x="115" y="36" fill="#0000ff" style="text-anchor: middle; font-size: 12px;" transform="matrix(0,1,-1,0,151,-79)">ANATO</text></g><g id="B-0-5" style="cursor:pointer"><rect x="136" y="0" width="33" height="72" fill="none" style=""></rect></g><g id="B-0-6" style="cursor:pointer" transform="matrix(1,0,0,1,0,0)"><path d="M170,24 L185.5, 0 201,24 194.8,72 176.2,72Z" fill="url('#linearGradientSl9sfqxdqz')" stroke="#009933" style="stroke-width: 0.5;"></path><path d="M170,24 L185.5, 0 201,24 194.8,72 176.2,72Z" fill="url('#linearGradientSl9sfqxdq11')" stroke="none" style="stroke-width: 0.5;" transform="matrix(0.7742,0,0,0.9028,41.8871,3.5)"></path><text x="181.5" y="36" fill="#ffffff" style="filter: url(&quot;#glow&quot;); text-anchor: middle; font-size: 12px;" transform="matrix(0,1,-1,0,217.5,-145.5)">EGF</text><text x="181.5" y="36" fill="#0000ff" style="text-anchor: middle; font-size: 12px;" transform="matrix(0,1,-1,0,217.5,-145.5)">EGF</text></g><g id="B-0-7" style="cursor:pointer"><path d="M202,24 L224.5, 0 247,24 238,72 211,72Z" fill="url('#linearGradientSl9sfqxdq1a')" stroke="#008132" style="stroke-width: 0.5;"></path><path d="M202,24 L224.5, 0 247,24 238,72 211,72Z" fill="url('#linearGradientSl9sfqxdq1c')" stroke="none" style="stroke-width: 0.5;" transform="matrix(0.8444,0,0,0.9028,34.9222,3.5)"></path><text x="224.5" y="31" fill="#ffffff" style="filter: url(&quot;#glow&quot;); text-anchor: middle; font-size: 10px;">EGF</text><text x="224.5" y="31" fill="#0000ff" style="text-anchor: middle; font-size: 10px;">EGF</text><text x="224.5" y="54" fill="#ffffff" style="filter: url(&quot;#glow&quot;); text-anchor: middle; font-size: 18px;">CA</text><text x="224.5" y="54" fill="#0000ff" style="text-anchor: middle; font-size: 18px;">CA</text></g><g id="B-0-8" style="cursor:pointer"><path d="M251,24 L272, 0 293,24 284.6,72 259.4,72Z" fill="url('#linearGradientSl9sfqxdq1n')" stroke="#009933" style="stroke-width: 0.5;"></path><path d="M251,24 L272, 0 293,24 284.6,72 259.4,72Z" fill="url('#linearGradientSl9sfqxdq1p')" stroke="none" style="stroke-width: 0.5;" transform="matrix(0.8333,0,0,0.9028,45.3333,3.5)"></path><text x="272" y="41" fill="#ffffff" style="filter: url(&quot;#glow&quot;); text-anchor: middle; font-size: 15px;">EGF</text><text x="272" y="41" fill="#0000ff" style="text-anchor: middle; font-size: 15px;">EGF</text></g><g id="B-0-9" style="cursor:pointer"><path d="M294,24 L317.5, 0 341,24 331.6,72 303.4,72Z" fill="url('#linearGradientSl9sfqxdq1y')" stroke="#008132" style="stroke-width: 0.5;"></path><path d="M294,24 L317.5, 0 341,24 331.6,72 303.4,72Z" fill="url('#linearGradientSl9sfqxdq20')" stroke="none" style="stroke-width: 0.5;" transform="matrix(0.8511,0,0,0.9028,47.2872,3.5)"></path><text x="317.5" y="30.5" fill="#ffffff" style="filter: url(&quot;#glow&quot;); text-anchor: middle; font-size: 11px;">EGF</text><text x="317.5" y="30.5" fill="#0000ff" style="text-anchor: middle; font-size: 11px;">EGF</text><text x="317.5" y="54" fill="#ffffff" style="filter: url(&quot;#glow&quot;); text-anchor: middle; font-size: 18px;">CA</text><text x="317.5" y="54" fill="#0000ff" style="text-anchor: middle; font-size: 18px;">CA</text></g><g id="B-0-10" style="cursor:pointer"><path d="M342,24 L362.5, 0 383,24 374.8,72 350.2,72Z" fill="url('#linearGradientSl9sfqxdq2b')" stroke="#008132" style="stroke-width: 0.5;"></path><path d="M342,24 L362.5, 0 383,24 374.8,72 350.2,72Z" fill="url('#linearGradientSl9sfqxdq2d')" stroke="none" style="stroke-width: 0.5;" transform="matrix(0.8293,0,0,0.9028,61.8902,3.5)"></path><text x="362.5" y="31.5" fill="#ffffff" style="filter: url(&quot;#glow&quot;); text-anchor: middle; font-size: 9px;">EGF</text><text x="362.5" y="31.5" fill="#0000ff" style="text-anchor: middle; font-size: 9px;">EGF</text><text x="362.5" y="53" fill="#ffffff" style="filter: url(&quot;#glow&quot;); text-anchor: middle; font-size: 17px;">CA</text><text x="362.5" y="53" fill="#0000ff" style="text-anchor: middle; font-size: 17px;">CA</text></g><g id="B-0-11" style="cursor:pointer"><path d="M384,24 L404.5, 0 425,24 416.8,72 392.2,72Z" fill="url('#linearGradientSl9sfqxdq2o')" stroke="#008132" style="stroke-width: 0.5;"></path><path d="M384,24 L404.5, 0 425,24 416.8,72 392.2,72Z" fill="url('#linearGradientSl9sfqxdq2q')" stroke="none" style="stroke-width: 0.5;" transform="matrix(0.8293,0,0,0.9028,69.061,3.5)"></path><text x="404.5" y="31.5" fill="#ffffff" style="filter: url(&quot;#glow&quot;); text-anchor: middle; font-size: 9px;">EGF</text><text x="404.5" y="31.5" fill="#0000ff" style="text-anchor: middle; font-size: 9px;">EGF</text><text x="404.5" y="53" fill="#ffffff" style="filter: url(&quot;#glow&quot;); text-anchor: middle; font-size: 17px;">CA</text><text x="404.5" y="53" fill="#0000ff" style="text-anchor: middle; font-size: 17px;">CA</text></g><g id="B-0-12" style="cursor:pointer"><path d="M426,24 L445.5, 0 465,24 457.2,72 433.8,72Z" fill="url('#linearGradientSl9sfqxdq31')" stroke="#008132" style="stroke-width: 0.5;"></path><path d="M426,24 L445.5, 0 465,24 457.2,72 433.8,72Z" fill="url('#linearGradientSl9sfqxdq33')" stroke="none" style="stroke-width: 0.5;" transform="matrix(0.8205,0,0,0.9028,79.9615,3.5)"></path><text x="448" y="36" fill="#ffffff" style="filter: url(&quot;#glow&quot;); text-anchor: middle; font-size: 12px;" transform="matrix(0,1,-1,0,484,-412)">EGF</text><text x="448" y="36" fill="#0000ff" style="text-anchor: middle; font-size: 12px;" transform="matrix(0,1,-1,0,484,-412)">EGF</text><text x="436" y="36" fill="#ffffff" style="filter: url(&quot;#glow&quot;); text-anchor: middle; font-size: 12px;" transform="matrix(0,1,-1,0,472,-400)">CA</text><text x="436" y="36" fill="#0000ff" style="text-anchor: middle; font-size: 12px;" transform="matrix(0,1,-1,0,472,-400)">CA</text></g><g id="B-0-13" style="cursor:pointer"><path d="M466,24 L487.5, 0 509,24 500.4,72 474.6,72Z" fill="url('#linearGradientSl9sfqxdq3e')" stroke="#008132" style="stroke-width: 0.5;"></path><path d="M466,24 L487.5, 0 509,24 500.4,72 474.6,72Z" fill="url('#linearGradientSl9sfqxdq3g')" stroke="none" style="stroke-width: 0.5;" transform="matrix(0.8372,0,0,0.9028,79.3605,3.5)"></path><text x="487.5" y="31" fill="#ffffff" style="filter: url(&quot;#glow&quot;); text-anchor: middle; font-size: 10px;">EGF</text><text x="487.5" y="31" fill="#0000ff" style="text-anchor: middle; font-size: 10px;">EGF</text><text x="487.5" y="54" fill="#ffffff" style="filter: url(&quot;#glow&quot;); text-anchor: middle; font-size: 18px;">CA</text><text x="487.5" y="54" fill="#0000ff" style="text-anchor: middle; font-size: 18px;">CA</text></g><g id="B-0-14" style="cursor:pointer"><path d="M510,24 L532, 0 554,24 545.2,72 518.8,72Z" fill="url('#linearGradientSl9sfqxdq3r')" stroke="#008132" style="stroke-width: 0.5;"></path><path d="M510,24 L532, 0 554,24 545.2,72 518.8,72Z" fill="url('#linearGradientSl9sfqxdq3t')" stroke="none" style="stroke-width: 0.5;" transform="matrix(0.8409,0,0,0.9028,84.6364,3.5)"></path><text x="532" y="31" fill="#ffffff" style="filter: url(&quot;#glow&quot;); text-anchor: middle; font-size: 10px;">EGF</text><text x="532" y="31" fill="#0000ff" style="text-anchor: middle; font-size: 10px;">EGF</text><text x="532" y="53" fill="#ffffff" style="filter: url(&quot;#glow&quot;); text-anchor: middle; font-size: 17px;">like</text><text x="532" y="53" fill="#0000ff" style="text-anchor: middle; font-size: 17px;">like</text></g><g id="B-0-15" style="cursor:pointer"><rect x="555" y="0" width="121" height="72" fill="none" style=""></rect></g><line x1="0" x2="676" y1="100" y2="100" stroke="#dddddd" style="stroke-width: 0.1;"></line><line x1="0" x2="0" y1="100" y2="104" stroke="#333333" style="stroke-width: 0.5;"></line><text x="1" y="108" style="font-weight: normal; font-size: 8px; color: rgb(51, 51, 51);">0</text><line x1="50" x2="50" y1="100" y2="102" stroke="#888888" style="stroke-width: 0.1;"></line><line x1="100" x2="100" y1="100" y2="104" stroke="#333333" style="stroke-width: 0.5;"></line><text x="101" y="108" style="font-weight: normal; font-size: 8px; color: rgb(51, 51, 51);">100</text><line x1="150" x2="150" y1="100" y2="102" stroke="#888888" style="stroke-width: 0.1;"></line><line x1="200" x2="200" y1="100" y2="104" stroke="#333333" style="stroke-width: 0.5;"></line><text x="201" y="108" style="font-weight: normal; font-size: 8px; color: rgb(51, 51, 51);">200</text><line x1="250" x2="250" y1="100" y2="102" stroke="#888888" style="stroke-width: 0.1;"></line><line x1="300" x2="300" y1="100" y2="104" stroke="#333333" style="stroke-width: 0.5;"></line><text x="301" y="108" style="font-weight: normal; font-size: 8px; color: rgb(51, 51, 51);">300</text><line x1="350" x2="350" y1="100" y2="102" stroke="#888888" style="stroke-width: 0.1;"></line><line x1="400" x2="400" y1="100" y2="104" stroke="#333333" style="stroke-width: 0.5;"></line><text x="401" y="108" style="font-weight: normal; font-size: 8px; color: rgb(51, 51, 51);">400</text><line x1="450" x2="450" y1="100" y2="102" stroke="#888888" style="stroke-width: 0.1;"></line><line x1="500" x2="500" y1="100" y2="104" stroke="#333333" style="stroke-width: 0.5;"></line><text x="501" y="108" style="font-weight: normal; font-size: 8px; color: rgb(51, 51, 51);">500</text><line x1="550" x2="550" y1="100" y2="102" stroke="#888888" style="stroke-width: 0.1;"></line><line x1="600" x2="600" y1="100" y2="104" stroke="#333333" style="stroke-width: 0.5;"></line><text x="601" y="108" style="font-weight: normal; font-size: 8px; color: rgb(51, 51, 51);">600</text><line x1="650" x2="650" y1="100" y2="102" stroke="#888888" style="stroke-width: 0.1;"></line><rect x="0" y="90" width="676" height="110" fill="none" style="cursor: pointer;"></rect></g><g id="markGrp"></g><g id="hlGrp"></g></svg>