<svg id="proteinDrawer" viewBox="0 0 995 120" width="995" height="100%" background="#ff0000" xmlns="http://www.w3.org/2000/svg"><desc>Created with Snap</desc><defs><linearGradient x1="0" y1="0" x2="1" y2="0" id="linearGradientSl9r2nbuzg"><stop offset="0%" stop-color="#ffffff"></stop><stop offset="100%" stop-color="#ff3300"></stop></linearGradient><linearGradient x1="0" y1="0" x2="1" y2="0" id="linearGradientSl9r2nbuzi"><stop offset="0%" stop-color="#ff3300"></stop><stop offset="100%" stop-color="#ffffff"></stop></linearGradient><linearGradient x1="0" y1="0" x2="1" y2="0" id="linearGradientSl9r2nbuzt"><stop offset="0%" stop-color="#ffffff"></stop><stop offset="100%" stop-color="#330066"></stop></linearGradient><linearGradient x1="0" y1="0" x2="1" y2="0" id="linearGradientSl9r2nbuzv"><stop offset="0%" stop-color="#330066"></stop><stop offset="100%" stop-color="#ffffff"></stop></linearGradient><linearGradient x1="0" y1="0" x2="1" y2="0" id="linearGradientSl9r2nbuz16"><stop offset="0%" stop-color="#ffffff"></stop><stop offset="100%" stop-color="#ff0066"></stop></linearGradient><linearGradient x1="0" y1="0" x2="1" y2="0" id="linearGradientSl9r2nbuz18"><stop offset="0%" stop-color="#ff0066"></stop><stop offset="100%" stop-color="#ffffff"></stop></linearGradient><linearGradient x1="0" y1="0" x2="1" y2="0" id="linearGradientSl9r2nbuz1j"><stop offset="0%" stop-color="#ffffff"></stop><stop offset="100%" stop-color="#330066"></stop></linearGradient><linearGradient x1="0" y1="0" x2="1" y2="0" id="linearGradientSl9r2nbuz1l"><stop offset="0%" stop-color="#330066"></stop><stop offset="100%" stop-color="#ffffff"></stop></linearGradient></defs><defs><filter id="glow" x="-20%" y="-20%" width="150%" height="150%"><feGaussianBlur stdDeviation="3 3" result="glow"></feGaussianBlur><feMerge><feMergeNode in="glow"></feMergeNode><feMergeNode in="glow"></feMergeNode><feMergeNode in="glow"></feMergeNode></feMerge></filter><style type="text/css"> text { font-family: arial; font-weight:bold; } </style></defs><g id="protein" transform="matrix(1,0,0,1,0,10)"><rect x="0" y="33" width="895" height="6" fill="#bbbbbb" style=""></rect><g id="B-0-0" style="cursor:pointer"><rect x="1" y="0" width="78" height="72" fill="none" style=""></rect></g><g id="B-0-1" style="cursor:pointer"><rect x="80" y="0" width="31" height="72" fill="none" style=""></rect><rect x="80" y="31" width="31" height="10" fill="#ff00ff" style=""></rect></g><g id="B-0-2" style="cursor:pointer"><rect x="112" y="0" width="182" height="72" fill="none" style=""></rect></g><g id="B-0-3" style="cursor:pointer"><rect x="295" y="0" width="12" height="72" fill="none" style=""></rect><rect x="295" y="31" width="12" height="10" fill="#ff00ff" style=""></rect></g><g id="B-0-4" style="cursor:pointer"><rect x="308" y="0" width="27" height="72" fill="none" style=""></rect></g><g id="B-0-5" style="cursor:pointer"><path d="M336,36 L395.6666666666667,0 515,14.4 515,57.6 395.6666666666667,72 Z" fill="url('#linearGradientSl9r2nbuzg')" stroke="#ff3300" style="stroke-width: 0.5;"></path><path d="M336,36 L395.6666666666667,0 515,14.4 515,57.6 395.6666666666667,72 Z" fill="url('#linearGradientSl9r2nbuzi')" stroke="none" style="stroke-width: 0.5;" transform="matrix(0.9609,0,0,-0.9028,16.6397,68.5)"></path><text x="425.5" y="42.666666666666664" fill="#ffffff" style="filter: url(&quot;#glow&quot;); text-anchor: middle; font-size: 20px;">RhoGEF</text><text x="425.5" y="42.666666666666664" fill="#000000" style="text-anchor: middle; font-size: 20px;">RhoGEF</text></g><g id="B-0-6" style="cursor:pointer"><rect x="516" y="0" width="29" height="72" fill="none" style=""></rect></g><g id="B-0-7" style="cursor:pointer"><rect x="546" y="0" width="100" height="72" rx="15" ry="15" fill="url('#linearGradientSl9r2nbuzt')" stroke="#330066" style="stroke-width: 0.5;"></rect><rect x="546" y="0" width="100" height="72" rx="15" ry="15" fill="url('#linearGradientSl9r2nbuzv')" stroke="none" style="stroke-width: 0.5;" transform="matrix(0.93,0,0,0.9028,41.72,3.5)"></rect><text x="596" y="42.666666666666664" fill="#ffffff" style="filter: url(&quot;#glow&quot;); text-anchor: middle; font-size: 20px;">PH</text><text x="596" y="42.666666666666664" fill="#000000" style="text-anchor: middle; font-size: 20px;">PH</text></g><g id="B-0-8" style="cursor:pointer"><rect x="647" y="0" width="41" height="72" fill="none" style=""></rect></g><g id="B-0-9" style="cursor:pointer"><ellipse cx="720" cy="36" rx="31" ry="36" fill="url('#linearGradientSl9r2nbuz16')" stroke="#ff0066" style="stroke-width: 0.5;"></ellipse><ellipse cx="720" cy="36" rx="31" ry="36" fill="url('#linearGradientSl9r2nbuz18')" stroke="none" style="stroke-width: 0.5;" transform="matrix(0.8871,0,0,0.9028,81.2903,3.5)"></ellipse><text x="720" y="41.666666666666664" fill="#ffffff" style="filter: url(&quot;#glow&quot;); text-anchor: middle; font-size: 17px;">FYVE</text><text x="720" y="41.666666666666664" fill="#000000" style="text-anchor: middle; font-size: 17px;">FYVE</text></g><g id="B-0-10" style="cursor:pointer"><rect x="752" y="0" width="24" height="72" fill="none" style=""></rect></g><g id="B-0-11" style="cursor:pointer"><rect x="777" y="0" width="102" height="72" rx="15" ry="15" fill="url('#linearGradientSl9r2nbuz1j')" stroke="#330066" style="stroke-width: 0.5;"></rect><rect x="777" y="0" width="102" height="72" rx="15" ry="15" fill="url('#linearGradientSl9r2nbuz1l')" stroke="none" style="stroke-width: 0.5;" transform="matrix(0.9314,0,0,0.9028,56.8235,3.5)"></rect><text x="828" y="42.666666666666664" fill="#ffffff" style="filter: url(&quot;#glow&quot;); text-anchor: middle; font-size: 20px;">PH</text><text x="828" y="42.666666666666664" fill="#000000" style="text-anchor: middle; font-size: 20px;">PH</text></g><g id="B-0-12" style="cursor:pointer"><rect x="880" y="0" width="15" height="72" fill="none" style=""></rect></g><line x1="0" x2="895" y1="100" y2="100" stroke="#dddddd" style="stroke-width: 0.1;"></line><line x1="0" x2="0" y1="100" y2="104" stroke="#333333" style="stroke-width: 0.5;"></line><text x="1" y="108" style="font-weight: normal; font-size: 8px; color: rgb(51, 51, 51);">0</text><line x1="50" x2="50" y1="100" y2="102" stroke="#888888" style="stroke-width: 0.1;"></line><line x1="100" x2="100" y1="100" y2="104" stroke="#333333" style="stroke-width: 0.5;"></line><text x="101" y="108" style="font-weight: normal; font-size: 8px; color: rgb(51, 51, 51);">100</text><line x1="150" x2="150" y1="100" y2="102" stroke="#888888" style="stroke-width: 0.1;"></line><line x1="200" x2="200" y1="100" y2="104" stroke="#333333" style="stroke-width: 0.5;"></line><text x="201" y="108" style="font-weight: normal; font-size: 8px; color: rgb(51, 51, 51);">200</text><line x1="250" x2="250" y1="100" y2="102" stroke="#888888" style="stroke-width: 0.1;"></line><line x1="300" x2="300" y1="100" y2="104" stroke="#333333" style="stroke-width: 0.5;"></line><text x="301" y="108" style="font-weight: normal; font-size: 8px; color: rgb(51, 51, 51);">300</text><line x1="350" x2="350" y1="100" y2="102" stroke="#888888" style="stroke-width: 0.1;"></line><line x1="400" x2="400" y1="100" y2="104" stroke="#333333" style="stroke-width: 0.5;"></line><text x="401" y="108" style="font-weight: normal; font-size: 8px; color: rgb(51, 51, 51);">400</text><line x1="450" x2="450" y1="100" y2="102" stroke="#888888" style="stroke-width: 0.1;"></line><line x1="500" x2="500" y1="100" y2="104" stroke="#333333" style="stroke-width: 0.5;"></line><text x="501" y="108" style="font-weight: normal; font-size: 8px; color: rgb(51, 51, 51);">500</text><line x1="550" x2="550" y1="100" y2="102" stroke="#888888" style="stroke-width: 0.1;"></line><line x1="600" x2="600" y1="100" y2="104" stroke="#333333" style="stroke-width: 0.5;"></line><text x="601" y="108" style="font-weight: normal; font-size: 8px; color: rgb(51, 51, 51);">600</text><line x1="650" x2="650" y1="100" y2="102" stroke="#888888" style="stroke-width: 0.1;"></line><line x1="700" x2="700" y1="100" y2="104" stroke="#333333" style="stroke-width: 0.5;"></line><text x="701" y="108" style="font-weight: normal; font-size: 8px; color: rgb(51, 51, 51);">700</text><line x1="750" x2="750" y1="100" y2="102" stroke="#888888" style="stroke-width: 0.1;"></line><line x1="800" x2="800" y1="100" y2="104" stroke="#333333" style="stroke-width: 0.5;"></line><text x="801" y="108" style="font-weight: normal; font-size: 8px; color: rgb(51, 51, 51);">800</text><line x1="850" x2="850" y1="100" y2="102" stroke="#888888" style="stroke-width: 0.1;"></line><rect x="0" y="90" width="895" height="110" fill="none" style="cursor: pointer;"></rect></g><g id="markGrp"></g><g id="hlGrp"></g></svg>