<svg id="proteinDrawer" viewBox="0 0 1068 120" width="1068" height="100%" background="#ff0000" xmlns="http://www.w3.org/2000/svg"><desc>Created with Snap</desc><defs><linearGradient x1="0" y1="0" x2="1" y2="0" id="linearGradientSl9sepcxc16"><stop offset="0%" stop-color="#ffffff"></stop><stop offset="100%" stop-color="#003dad"></stop></linearGradient><linearGradient x1="0" y1="0" x2="1" y2="0" id="linearGradientSl9sepcxc18"><stop offset="0%" stop-color="#003dad"></stop><stop offset="100%" stop-color="#ffffff"></stop></linearGradient><linearGradient x1="0" y1="0" x2="1" y2="0" id="linearGradientSl9sepcxc1j"><stop offset="0%" stop-color="#ffffff"></stop><stop offset="100%" stop-color="#330066"></stop></linearGradient><linearGradient x1="0" y1="0" x2="1" y2="0" id="linearGradientSl9sepcxc1l"><stop offset="0%" stop-color="#330066"></stop><stop offset="100%" stop-color="#ffffff"></stop></linearGradient></defs><defs><filter id="glow" x="-20%" y="-20%" width="150%" height="150%"><feGaussianBlur stdDeviation="3 3" result="glow"></feGaussianBlur><feMerge><feMergeNode in="glow"></feMergeNode><feMergeNode in="glow"></feMergeNode><feMergeNode in="glow"></feMergeNode></feMerge></filter><style type="text/css"> text { font-family: arial; font-weight:bold; } </style></defs><g id="protein" transform="matrix(1,0,0,1,0,10)"><rect x="0" y="33" width="968" height="6" fill="#bbbbbb" style=""></rect><g id="B-0-0" style="cursor:pointer"><rect x="1" y="0" width="40" height="72" fill="none" style=""></rect></g><g id="B-0-1" style="cursor:pointer"><rect x="42" y="0" width="28" height="72" fill="none" style=""></rect><rect x="42" y="31" width="28" height="10" fill="#ff00ff" style=""></rect></g><g id="B-0-2" style="cursor:pointer"><rect x="71" y="0" width="107" height="72" fill="none" style=""></rect></g><g id="B-0-3" style="cursor:pointer"><rect x="179" y="0" width="9" height="72" fill="none" style=""></rect><rect x="179" y="31" width="9" height="10" fill="#ff00ff" style=""></rect></g><g id="B-0-4" style="cursor:pointer"><rect x="189" y="0" width="71" height="72" fill="none" style=""></rect></g><g id="B-0-5" style="cursor:pointer"><rect x="261" y="0" width="8" height="72" fill="none" style=""></rect><rect x="261" y="31" width="8" height="10" fill="#ff00ff" style=""></rect></g><g id="B-0-6" style="cursor:pointer"><rect x="271" y="0" width="12" height="72" fill="none" style=""></rect><rect x="271" y="31" width="12" height="10" fill="#ff00ff" style=""></rect></g><g id="B-0-7" style="cursor:pointer"><rect x="284" y="0" width="91" height="72" fill="none" style=""></rect></g><g id="B-0-8" style="cursor:pointer"><rect x="376" y="0" width="14" height="72" fill="none" style=""></rect><rect x="376" y="31" width="14" height="10" fill="#ff00ff" style=""></rect></g><g id="B-0-9" style="cursor:pointer"><rect x="391" y="0" width="50" height="72" fill="none" style=""></rect></g><g id="B-0-10" style="cursor:pointer"><rect x="442" y="0" width="20" height="72" fill="none" style=""></rect><rect x="442" y="31" width="20" height="10" fill="#ff00ff" style=""></rect></g><g id="B-0-11" style="cursor:pointer"><rect x="466" y="0" width="25" height="72" fill="none" style=""></rect><rect x="466" y="31" width="25" height="10" fill="#ff00ff" style=""></rect></g><g id="B-0-12" style="cursor:pointer"><rect x="492" y="0" width="7" height="72" fill="none" style=""></rect></g><g id="B-0-13" style="cursor:pointer"><rect x="500" y="0" width="28" height="72" fill="none" style=""></rect><rect x="500" y="31" width="28" height="10" fill="#ff00ff" style=""></rect></g><g id="B-0-14" style="cursor:pointer"><rect x="529" y="0" width="27" height="72" fill="none" style=""></rect></g><g id="B-0-15" style="cursor:pointer"><rect x="557" y="0" width="191" height="72" rx="15" ry="15" fill="url('#linearGradientSl9sepcxc16')" stroke="#003dad" style="stroke-width: 0.5;"></rect><rect x="557" y="0" width="191" height="72" rx="15" ry="15" fill="url('#linearGradientSl9sepcxc18')" stroke="none" style="stroke-width: 0.5;" transform="matrix(0.9634,0,0,0.9028,23.9136,3.5)"></rect><text x="652.5" y="42.666666666666664" fill="#ffffff" style="filter: url(&quot;#glow&quot;); text-anchor: middle; font-size: 20px;">Sec7</text><text x="652.5" y="42.666666666666664" fill="#000000" style="text-anchor: middle; font-size: 20px;">Sec7</text></g><g id="B-0-16" style="cursor:pointer"><rect x="749" y="0" width="29" height="72" fill="none" style=""></rect></g><g id="B-0-17" style="cursor:pointer"><rect x="779" y="0" width="111" height="72" rx="15" ry="15" fill="url('#linearGradientSl9sepcxc1j')" stroke="#330066" style="stroke-width: 0.5;"></rect><rect x="779" y="0" width="111" height="72" rx="15" ry="15" fill="url('#linearGradientSl9sepcxc1l')" stroke="none" style="stroke-width: 0.5;" transform="matrix(0.9369,0,0,0.9028,52.6261,3.5)"></rect><text x="834.5" y="42.666666666666664" fill="#ffffff" style="filter: url(&quot;#glow&quot;); text-anchor: middle; font-size: 20px;">PH</text><text x="834.5" y="42.666666666666664" fill="#000000" style="text-anchor: middle; font-size: 20px;">PH</text></g><g id="B-0-18" style="cursor:pointer"><rect x="891" y="0" width="24" height="72" fill="none" style=""></rect></g><g id="B-0-19" style="cursor:pointer"><rect x="916" y="0" width="16" height="72" fill="none" style=""></rect><rect x="916" y="31" width="16" height="10" fill="#ff00ff" style=""></rect></g><g id="B-0-20" style="cursor:pointer"><rect x="933" y="0" width="35" height="72" fill="none" style=""></rect></g><line x1="0" x2="968" y1="100" y2="100" stroke="#dddddd" style="stroke-width: 0.1;"></line><line x1="0" x2="0" y1="100" y2="104" stroke="#333333" style="stroke-width: 0.5;"></line><text x="1" y="108" style="font-weight: normal; font-size: 8px; color: rgb(51, 51, 51);">0</text><line x1="50" x2="50" y1="100" y2="102" stroke="#888888" style="stroke-width: 0.1;"></line><line x1="100" x2="100" y1="100" y2="104" stroke="#333333" style="stroke-width: 0.5;"></line><text x="101" y="108" style="font-weight: normal; font-size: 8px; color: rgb(51, 51, 51);">100</text><line x1="150" x2="150" y1="100" y2="102" stroke="#888888" style="stroke-width: 0.1;"></line><line x1="200" x2="200" y1="100" y2="104" stroke="#333333" style="stroke-width: 0.5;"></line><text x="201" y="108" style="font-weight: normal; font-size: 8px; color: rgb(51, 51, 51);">200</text><line x1="250" x2="250" y1="100" y2="102" stroke="#888888" style="stroke-width: 0.1;"></line><line x1="300" x2="300" y1="100" y2="104" stroke="#333333" style="stroke-width: 0.5;"></line><text x="301" y="108" style="font-weight: normal; font-size: 8px; color: rgb(51, 51, 51);">300</text><line x1="350" x2="350" y1="100" y2="102" stroke="#888888" style="stroke-width: 0.1;"></line><line x1="400" x2="400" y1="100" y2="104" stroke="#333333" style="stroke-width: 0.5;"></line><text x="401" y="108" style="font-weight: normal; font-size: 8px; color: rgb(51, 51, 51);">400</text><line x1="450" x2="450" y1="100" y2="102" stroke="#888888" style="stroke-width: 0.1;"></line><line x1="500" x2="500" y1="100" y2="104" stroke="#333333" style="stroke-width: 0.5;"></line><text x="501" y="108" style="font-weight: normal; font-size: 8px; color: rgb(51, 51, 51);">500</text><line x1="550" x2="550" y1="100" y2="102" stroke="#888888" style="stroke-width: 0.1;"></line><line x1="600" x2="600" y1="100" y2="104" stroke="#333333" style="stroke-width: 0.5;"></line><text x="601" y="108" style="font-weight: normal; font-size: 8px; color: rgb(51, 51, 51);">600</text><line x1="650" x2="650" y1="100" y2="102" stroke="#888888" style="stroke-width: 0.1;"></line><line x1="700" x2="700" y1="100" y2="104" stroke="#333333" style="stroke-width: 0.5;"></line><text x="701" y="108" style="font-weight: normal; font-size: 8px; color: rgb(51, 51, 51);">700</text><line x1="750" x2="750" y1="100" y2="102" stroke="#888888" style="stroke-width: 0.1;"></line><line x1="800" x2="800" y1="100" y2="104" stroke="#333333" style="stroke-width: 0.5;"></line><text x="801" y="108" style="font-weight: normal; font-size: 8px; color: rgb(51, 51, 51);">800</text><line x1="850" x2="850" y1="100" y2="102" stroke="#888888" style="stroke-width: 0.1;"></line><line x1="900" x2="900" y1="100" y2="104" stroke="#333333" style="stroke-width: 0.5;"></line><text x="901" y="108" style="font-weight: normal; font-size: 8px; color: rgb(51, 51, 51);">900</text><line x1="950" x2="950" y1="100" y2="102" stroke="#888888" style="stroke-width: 0.1;"></line><rect x="0" y="90" width="968" height="110" fill="none" style="cursor: pointer;"></rect></g><g id="markGrp"></g><g id="hlGrp"></g></svg>