<svg id="proteinDrawer" viewBox="0 0 679 120" width="679" height="100%" background="#ff0000" xmlns="http://www.w3.org/2000/svg"><desc>Created with Snap</desc><defs><linearGradient x1="0" y1="0" x2="1" y2="0" id="linearGradientSl9pvqwh2g"><stop offset="0%" stop-color="#ffffff"></stop><stop offset="100%" stop-color="#ffe500"></stop></linearGradient><linearGradient x1="0" y1="0" x2="1" y2="0" id="linearGradientSl9pvqwh2i"><stop offset="0%" stop-color="#ffe500"></stop><stop offset="100%" stop-color="#ffffff"></stop></linearGradient></defs><defs><filter id="glow" x="-20%" y="-20%" width="150%" height="150%"><feGaussianBlur stdDeviation="3 3" result="glow"></feGaussianBlur><feMerge><feMergeNode in="glow"></feMergeNode><feMergeNode in="glow"></feMergeNode><feMergeNode in="glow"></feMergeNode></feMerge></filter><style type="text/css"> text { font-family: arial; font-weight:bold; } </style></defs><g id="protein" transform="matrix(1,0,0,1,0,10)"><rect x="0" y="33" width="579" height="6" fill="#bbbbbb" style=""></rect><g id="B-0-0" style="cursor:pointer"><rect x="1" y="0" width="57" height="72" fill="none" style=""></rect></g><g id="B-0-1" style="cursor:pointer"><rect x="59" y="0" width="11" height="72" fill="none" style=""></rect><rect x="59" y="31" width="11" height="10" fill="#ff00ff" style=""></rect></g><g id="B-0-2" style="cursor:pointer"><rect x="71" y="0" width="111" height="72" fill="none" style=""></rect></g><g id="B-0-3" style="cursor:pointer"><rect x="183" y="0" width="18" height="72" fill="none" style=""></rect><rect x="183" y="31" width="18" height="10" fill="#ff00ff" style=""></rect></g><g id="B-0-4" style="cursor:pointer"><rect x="202" y="0" width="10" height="72" fill="none" style=""></rect></g><g id="B-0-5" style="cursor:pointer" transform="matrix(1,0,0,1,0,0)"><path d="M213,0 L265,36 213,72Z" fill="url('#linearGradientSl9pvqwh2g')" stroke="#ffe500" style="stroke-width: 0.5;"></path><path d="M213,0 L265,36 213,72Z" fill="url('#linearGradientSl9pvqwh2i')" stroke="none" style="stroke-width: 0.5;" transform="matrix(0.8654,0,0,-0.8611,32.1731,67)"></path><text x="219" y="42.666666666666664" fill="#ffffff" style="filter: url(&quot;#glow&quot;); text-anchor: start; font-size: 20px;">LIM</text><text x="219" y="42.666666666666664" fill="#000000" style="text-anchor: start; font-size: 20px;">LIM</text></g><g id="B-0-6" style="cursor:pointer"><rect x="266" y="0" width="124" height="72" fill="none" style=""></rect></g><g id="B-0-7" style="cursor:pointer"><rect x="391" y="0" width="11" height="72" fill="none" style=""></rect><rect x="391" y="31" width="11" height="10" fill="#ff00ff" style=""></rect></g><g id="B-0-8" style="cursor:pointer"><rect x="403" y="0" width="57" height="72" fill="none" style=""></rect></g><g id="B-0-9" style="cursor:pointer"><rect x="461" y="0" width="22" height="72" fill="none" style=""></rect><rect x="461" y="31" width="22" height="10" fill="#ff00ff" style=""></rect></g><g id="B-0-10" style="cursor:pointer"><rect x="484" y="0" width="60" height="72" fill="none" style=""></rect></g><g id="B-0-11" style="cursor:pointer" transform="matrix(1,0,0,1,0,0)"><rect x="545" y="0" width="17" height="72" fill="none" style=""></rect><rect x="545" y="31" width="17" height="10" fill="#ff00ff" style=""></rect></g><g id="B-0-12" style="cursor:pointer"><rect x="563" y="0" width="6" height="72" fill="none" style=""></rect></g><g id="B-0-13" style="cursor:pointer" transform="matrix(1,0,0,1,0,0)"><rect x="570" y="0" width="8" height="72" fill="none" style=""></rect><rect x="570" y="31" width="8" height="10" fill="#ff00ff" style=""></rect></g><line x1="0" x2="579" y1="100" y2="100" stroke="#dddddd" style="stroke-width: 0.1;"></line><line x1="0" x2="0" y1="100" y2="104" stroke="#333333" style="stroke-width: 0.5;"></line><text x="1" y="108" style="font-weight: normal; font-size: 8px; color: rgb(51, 51, 51);">0</text><line x1="50" x2="50" y1="100" y2="102" stroke="#888888" style="stroke-width: 0.1;"></line><line x1="100" x2="100" y1="100" y2="104" stroke="#333333" style="stroke-width: 0.5;"></line><text x="101" y="108" style="font-weight: normal; font-size: 8px; color: rgb(51, 51, 51);">100</text><line x1="150" x2="150" y1="100" y2="102" stroke="#888888" style="stroke-width: 0.1;"></line><line x1="200" x2="200" y1="100" y2="104" stroke="#333333" style="stroke-width: 0.5;"></line><text x="201" y="108" style="font-weight: normal; font-size: 8px; color: rgb(51, 51, 51);">200</text><line x1="250" x2="250" y1="100" y2="102" stroke="#888888" style="stroke-width: 0.1;"></line><line x1="300" x2="300" y1="100" y2="104" stroke="#333333" style="stroke-width: 0.5;"></line><text x="301" y="108" style="font-weight: normal; font-size: 8px; color: rgb(51, 51, 51);">300</text><line x1="350" x2="350" y1="100" y2="102" stroke="#888888" style="stroke-width: 0.1;"></line><line x1="400" x2="400" y1="100" y2="104" stroke="#333333" style="stroke-width: 0.5;"></line><text x="401" y="108" style="font-weight: normal; font-size: 8px; color: rgb(51, 51, 51);">400</text><line x1="450" x2="450" y1="100" y2="102" stroke="#888888" style="stroke-width: 0.1;"></line><line x1="500" x2="500" y1="100" y2="104" stroke="#333333" style="stroke-width: 0.5;"></line><text x="501" y="108" style="font-weight: normal; font-size: 8px; color: rgb(51, 51, 51);">500</text><line x1="550" x2="550" y1="100" y2="102" stroke="#888888" style="stroke-width: 0.1;"></line><rect x="0" y="90" width="579" height="110" fill="none" style="cursor: pointer;"></rect></g><g id="markGrp"></g><g id="hlGrp"></g></svg>