<svg id="proteinDrawer" viewBox="0 0 854 120" width="854" height="100%" background="#ff0000" xmlns="http://www.w3.org/2000/svg"><desc>Created with Snap</desc><defs></defs><defs><filter id="glow" x="-20%" y="-20%" width="150%" height="150%"><feGaussianBlur stdDeviation="3 3" result="glow"></feGaussianBlur><feMerge><feMergeNode in="glow"></feMergeNode><feMergeNode in="glow"></feMergeNode><feMergeNode in="glow"></feMergeNode></feMerge></filter><style type="text/css"> text { font-family: arial; font-weight:bold; } </style></defs><g id="protein" transform="matrix(1,0,0,1,0,10)"><rect x="0" y="33" width="754" height="6" fill="#bbbbbb" style=""></rect><g id="B-0-0" style="cursor:pointer" transform="matrix(1,0,0,1,0,0)"><rect x="1" y="0" width="66" height="72" fill="none" style=""></rect><rect x="1" y="31" width="66" height="10" fill="#00ff00" style=""></rect></g><g id="B-0-1" style="cursor:pointer"><rect x="68" y="0" width="21" height="72" fill="none" style=""></rect></g><g id="B-0-2" style="cursor:pointer" transform="matrix(1,0,0,1,0,0)"><rect x="90" y="0" width="15" height="72" fill="none" style=""></rect><rect x="90" y="31" width="15" height="10" fill="#ff00ff" style=""></rect></g><g id="B-0-3" style="cursor:pointer"><rect x="106" y="0" width="132" height="72" fill="none" style=""></rect></g><g id="B-0-4" style="cursor:pointer"><rect x="239" y="0" width="13" height="72" fill="none" style=""></rect><rect x="239" y="31" width="13" height="10" fill="#ff00ff" style=""></rect></g><g id="B-0-5" style="cursor:pointer"><rect x="253" y="0" width="73" height="72" fill="none" style=""></rect></g><g id="B-0-6" style="cursor:pointer"><rect x="327" y="0" width="19" height="72" fill="none" style=""></rect><rect x="327" y="31" width="19" height="10" fill="#ff00ff" style=""></rect></g><g id="B-0-7" style="cursor:pointer"><rect x="347" y="0" width="18" height="72" fill="none" style=""></rect></g><g id="B-0-8" style="cursor:pointer"><rect x="366" y="0" width="12" height="72" fill="none" style=""></rect><rect x="366" y="31" width="12" height="10" fill="#ff00ff" style=""></rect></g><g id="B-0-9" style="cursor:pointer"><rect x="379" y="0" width="30" height="72" fill="none" style=""></rect></g><g id="B-0-10" style="cursor:pointer"><rect x="410" y="0" width="18" height="72" fill="none" style=""></rect><rect x="410" y="31" width="18" height="10" fill="#ff00ff" style=""></rect></g><g id="B-0-11" style="cursor:pointer"><rect x="434" y="0" width="132" height="72" fill="none" style=""></rect><rect x="434" y="31" width="132" height="10" fill="#00ff00" style=""></rect></g><g id="B-0-12" style="cursor:pointer"><rect x="567" y="0" width="20" height="72" fill="none" style=""></rect></g><g id="B-0-13" style="cursor:pointer"><rect x="588" y="0" width="11" height="72" fill="none" style=""></rect><rect x="588" y="31" width="11" height="10" fill="#ff00ff" style=""></rect></g><g id="B-0-14" style="cursor:pointer"><rect x="600" y="0" width="154" height="72" fill="none" style=""></rect></g><line x1="0" x2="754" y1="100" y2="100" stroke="#dddddd" style="stroke-width: 0.1;"></line><line x1="0" x2="0" y1="100" y2="104" stroke="#333333" style="stroke-width: 0.5;"></line><text x="1" y="108" style="font-weight: normal; font-size: 8px; color: rgb(51, 51, 51);">0</text><line x1="50" x2="50" y1="100" y2="102" stroke="#888888" style="stroke-width: 0.1;"></line><line x1="100" x2="100" y1="100" y2="104" stroke="#333333" style="stroke-width: 0.5;"></line><text x="101" y="108" style="font-weight: normal; font-size: 8px; color: rgb(51, 51, 51);">100</text><line x1="150" x2="150" y1="100" y2="102" stroke="#888888" style="stroke-width: 0.1;"></line><line x1="200" x2="200" y1="100" y2="104" stroke="#333333" style="stroke-width: 0.5;"></line><text x="201" y="108" style="font-weight: normal; font-size: 8px; color: rgb(51, 51, 51);">200</text><line x1="250" x2="250" y1="100" y2="102" stroke="#888888" style="stroke-width: 0.1;"></line><line x1="300" x2="300" y1="100" y2="104" stroke="#333333" style="stroke-width: 0.5;"></line><text x="301" y="108" style="font-weight: normal; font-size: 8px; color: rgb(51, 51, 51);">300</text><line x1="350" x2="350" y1="100" y2="102" stroke="#888888" style="stroke-width: 0.1;"></line><line x1="400" x2="400" y1="100" y2="104" stroke="#333333" style="stroke-width: 0.5;"></line><text x="401" y="108" style="font-weight: normal; font-size: 8px; color: rgb(51, 51, 51);">400</text><line x1="450" x2="450" y1="100" y2="102" stroke="#888888" style="stroke-width: 0.1;"></line><line x1="500" x2="500" y1="100" y2="104" stroke="#333333" style="stroke-width: 0.5;"></line><text x="501" y="108" style="font-weight: normal; font-size: 8px; color: rgb(51, 51, 51);">500</text><line x1="550" x2="550" y1="100" y2="102" stroke="#888888" style="stroke-width: 0.1;"></line><line x1="600" x2="600" y1="100" y2="104" stroke="#333333" style="stroke-width: 0.5;"></line><text x="601" y="108" style="font-weight: normal; font-size: 8px; color: rgb(51, 51, 51);">600</text><line x1="650" x2="650" y1="100" y2="102" stroke="#888888" style="stroke-width: 0.1;"></line><line x1="700" x2="700" y1="100" y2="104" stroke="#333333" style="stroke-width: 0.5;"></line><text x="701" y="108" style="font-weight: normal; font-size: 8px; color: rgb(51, 51, 51);">700</text><line x1="750" x2="750" y1="100" y2="102" stroke="#888888" style="stroke-width: 0.1;"></line><rect x="0" y="90" width="754" height="110" fill="none" style="cursor: pointer;"></rect></g><g id="markGrp"></g><g id="hlGrp"></g></svg>