<svg id="proteinDrawer" viewBox="0 0 409 120" width="409" height="100%" background="#ff0000" xmlns="http://www.w3.org/2000/svg"><desc>Created with Snap</desc><defs><linearGradient x1="0" y1="0" x2="1" y2="0" id="linearGradientSl9rw3dxy6"><stop offset="0%" stop-color="#ffffff"></stop><stop offset="100%" stop-color="#ff3300"></stop></linearGradient><linearGradient x1="0" y1="0" x2="1" y2="0" id="linearGradientSl9rw3dxy8"><stop offset="0%" stop-color="#ff3300"></stop><stop offset="100%" stop-color="#ffffff"></stop></linearGradient></defs><defs><filter id="glow" x="-20%" y="-20%" width="150%" height="150%"><feGaussianBlur stdDeviation="3 3" result="glow"></feGaussianBlur><feMerge><feMergeNode in="glow"></feMergeNode><feMergeNode in="glow"></feMergeNode><feMergeNode in="glow"></feMergeNode></feMerge></filter><style type="text/css"> text { font-family: arial; font-weight:bold; } </style></defs><g id="protein" transform="matrix(1,0,0,1,0,10)"><rect x="0" y="33" width="309" height="6" fill="#bbbbbb" style=""></rect><g id="B-0-0" style="cursor:pointer"><rect x="1" y="0" width="63" height="72" fill="none" style=""></rect></g><g id="B-0-1" style="cursor:pointer" transform="matrix(1,0,0,1,0,0)"><rect x="65" y="0" width="243" height="72" rx="15" ry="15" fill="url('#linearGradientSl9rw3dxy6')" stroke="#ff3300" style="stroke-width: 0.5;"></rect><rect x="65" y="0" width="243" height="72" rx="15" ry="15" fill="url('#linearGradientSl9rw3dxy8')" stroke="none" style="stroke-width: 0.5;" transform="matrix(0.9712,0,0,0.9028,5.3724,3.5)"></rect><text x="186.5" y="42.666666666666664" fill="#ffffff" style="filter: url(&quot;#glow&quot;); text-anchor: middle; font-size: 20px;">MYSc</text><text x="186.5" y="42.666666666666664" fill="#ff0000" style="text-anchor: middle; font-size: 20px;">MYSc</text></g><line x1="0" x2="309" y1="100" y2="100" stroke="#dddddd" style="stroke-width: 0.1;"></line><line x1="0" x2="0" y1="100" y2="104" stroke="#333333" style="stroke-width: 0.5;"></line><text x="1" y="108" style="font-weight: normal; font-size: 8px; color: rgb(51, 51, 51);">0</text><line x1="50" x2="50" y1="100" y2="102" stroke="#888888" style="stroke-width: 0.1;"></line><line x1="100" x2="100" y1="100" y2="104" stroke="#333333" style="stroke-width: 0.5;"></line><text x="101" y="108" style="font-weight: normal; font-size: 8px; color: rgb(51, 51, 51);">100</text><line x1="150" x2="150" y1="100" y2="102" stroke="#888888" style="stroke-width: 0.1;"></line><line x1="200" x2="200" y1="100" y2="104" stroke="#333333" style="stroke-width: 0.5;"></line><text x="201" y="108" style="font-weight: normal; font-size: 8px; color: rgb(51, 51, 51);">200</text><line x1="250" x2="250" y1="100" y2="102" stroke="#888888" style="stroke-width: 0.1;"></line><line x1="300" x2="300" y1="100" y2="104" stroke="#333333" style="stroke-width: 0.5;"></line><text x="301" y="108" style="font-weight: normal; font-size: 8px; color: rgb(51, 51, 51);">300</text><rect x="0" y="90" width="309" height="110" fill="none" style="cursor: pointer;"></rect></g><g id="markGrp"></g><g id="hlGrp"></g></svg>