<svg id="proteinDrawer" viewBox="0 0 1525 120" width="1525" height="100%" background="#ff0000" style="width: 1843px;" xmlns="http://www.w3.org/2000/svg"><desc>Created with Snap</desc><defs><linearGradient x1="0" y1="0" x2="1" y2="0" id="linearGradientSl9r1v0cqj"><stop offset="0%" stop-color="#ffffff"></stop><stop offset="100%" stop-color="#ff0066"></stop></linearGradient><linearGradient x1="0" y1="0" x2="1" y2="0" id="linearGradientSl9r1v0cql"><stop offset="0%" stop-color="#ff0066"></stop><stop offset="100%" stop-color="#ffffff"></stop></linearGradient><linearGradient x1="0" y1="0" x2="1" y2="0" id="linearGradientSl9r1v0cq1b"><stop offset="0%" stop-color="#ffffff"></stop><stop offset="100%" stop-color="#8c0099"></stop></linearGradient><linearGradient x1="0" y1="0" x2="1" y2="0" id="linearGradientSl9r1v0cq1d"><stop offset="0%" stop-color="#8c0099"></stop><stop offset="100%" stop-color="#ffffff"></stop></linearGradient><linearGradient x1="0" y1="0" x2="1" y2="0" id="linearGradientSl9r1v0cq1o"><stop offset="0%" stop-color="#ffffff"></stop><stop offset="100%" stop-color="#218219"></stop></linearGradient><linearGradient x1="0" y1="0" x2="1" y2="0" id="linearGradientSl9r1v0cq1q"><stop offset="0%" stop-color="#218219"></stop><stop offset="100%" stop-color="#ffffff"></stop></linearGradient><linearGradient x1="0" y1="0" x2="1" y2="0" id="linearGradientSl9r1v0cq3r"><stop offset="0%" stop-color="#ffffff"></stop><stop offset="100%" stop-color="#ff0066"></stop></linearGradient><linearGradient x1="0" y1="0" x2="1" y2="0" id="linearGradientSl9r1v0cq3t"><stop offset="0%" stop-color="#ff0066"></stop><stop offset="100%" stop-color="#ffffff"></stop></linearGradient><linearGradient x1="0" y1="0" x2="1" y2="0" id="linearGradientSl9r1v0cq4j"><stop offset="0%" stop-color="#ffffff"></stop><stop offset="100%" stop-color="#00cc00"></stop></linearGradient><linearGradient x1="0" y1="0" x2="1" y2="0" id="linearGradientSl9r1v0cq4l"><stop offset="0%" stop-color="#00cc00"></stop><stop offset="100%" stop-color="#ffffff"></stop></linearGradient><linearGradient x1="0" y1="0" x2="1" y2="0" id="linearGradientSl9r1v0cq4w"><stop offset="0%" stop-color="#ffffff"></stop><stop offset="100%" stop-color="#218219"></stop></linearGradient><linearGradient x1="0" y1="0" x2="1" y2="0" id="linearGradientSl9r1v0cq4y"><stop offset="0%" stop-color="#218219"></stop><stop offset="100%" stop-color="#ffffff"></stop></linearGradient><linearGradient x1="0" y1="0" x2="1" y2="0" id="linearGradientSl9r1v0cq6z"><stop offset="0%" stop-color="#ffffff"></stop><stop offset="100%" stop-color="#ff0066"></stop></linearGradient><linearGradient x1="0" y1="0" x2="1" y2="0" id="linearGradientSl9r1v0cq71"><stop offset="0%" stop-color="#ff0066"></stop><stop offset="100%" stop-color="#ffffff"></stop></linearGradient><linearGradient x1="0" y1="0" x2="1" y2="0" id="linearGradientSl9r1v0cq7r"><stop offset="0%" stop-color="#ffffff"></stop><stop offset="100%" stop-color="#8c0099"></stop></linearGradient><linearGradient x1="0" y1="0" x2="1" y2="0" id="linearGradientSl9r1v0cq7t"><stop offset="0%" stop-color="#8c0099"></stop><stop offset="100%" stop-color="#ffffff"></stop></linearGradient><linearGradient x1="0" y1="0" x2="1" y2="0" id="linearGradientSl9r1v0cq84"><stop offset="0%" stop-color="#ffffff"></stop><stop offset="100%" stop-color="#218219"></stop></linearGradient><linearGradient x1="0" y1="0" x2="1" y2="0" id="linearGradientSl9r1v0cq86"><stop offset="0%" stop-color="#218219"></stop><stop offset="100%" stop-color="#ffffff"></stop></linearGradient></defs><defs><filter id="glow" x="-20%" y="-20%" width="150%" height="150%"><feGaussianBlur stdDeviation="3 3" result="glow"></feGaussianBlur><feMerge><feMergeNode in="glow"></feMergeNode><feMergeNode in="glow"></feMergeNode><feMergeNode in="glow"></feMergeNode></feMerge></filter><style type="text/css"> text { font-family: arial; font-weight:bold; } </style></defs><g id="protein" transform="matrix(1,0,0,1,0,10)"><rect x="0" y="33" width="1425" height="6" fill="#bbbbbb" style=""></rect><g id="B-0-0" style="cursor:pointer"><rect x="1" y="0" width="92" height="72" fill="none" style=""></rect></g><g id="B-0-1" style="cursor:pointer"><rect x="94" y="0" width="10" height="72" fill="none" style=""></rect><rect x="94" y="31" width="10" height="10" fill="#ff00ff" style=""></rect></g><g id="B-0-2" style="cursor:pointer"><rect x="105" y="0" width="80" height="72" fill="none" style=""></rect></g><g id="B-0-3" style="cursor:pointer"><rect x="186" y="0" width="11" height="72" fill="none" style=""></rect><rect x="186" y="31" width="11" height="10" fill="#ff00ff" style=""></rect></g><g id="B-0-4" style="cursor:pointer"><rect x="199" y="0" width="21" height="72" fill="none" style=""></rect><rect x="199" y="31" width="21" height="10" fill="#ff00ff" style=""></rect></g><g id="B-0-5" style="cursor:pointer"><rect x="221" y="0" width="147" height="72" fill="none" style=""></rect></g><g id="B-0-6" style="cursor:pointer" transform="matrix(1,0,0,1,0,0)"><path d="M369,36 L436,0 436,72Z" fill="url('#linearGradientSl9r1v0cq6z')" stroke="#ff0066" style="stroke-width: 0.5;"></path><path d="M369,36 L436,0 436,72Z" fill="url('#linearGradientSl9r1v0cq71')" stroke="none" style="stroke-width: 0.5;" transform="matrix(0.8955,0,0,-0.8611,42.0522,67)"></path><text x="430" y="42.666666666666664" fill="#ffffff" style="filter: url(&quot;#glow&quot;); text-anchor: end; font-size: 20px;">SAM</text><text x="430" y="42.666666666666664" fill="#000000" style="text-anchor: end; font-size: 20px;">SAM</text></g><g id="B-0-7" style="cursor:pointer"><rect x="437" y="0" width="69" height="72" fill="none" style=""></rect></g><g id="B-0-8" style="cursor:pointer"><rect x="507" y="0" width="15" height="72" fill="none" style=""></rect><rect x="507" y="31" width="15" height="10" fill="#ff00ff" style=""></rect></g><g id="B-0-9" style="cursor:pointer"><rect x="523" y="0" width="119" height="72" fill="none" style=""></rect></g><g id="B-0-10" style="cursor:pointer"><rect x="643" y="0" width="17" height="72" fill="none" style=""></rect><rect x="643" y="31" width="17" height="10" fill="#ff00ff" style=""></rect></g><g id="B-0-11" style="cursor:pointer"><rect x="661" y="0" width="261" height="72" fill="none" style=""></rect></g><g id="B-0-12" style="cursor:pointer"><rect x="923" y="0" width="12" height="72" fill="none" style=""></rect><rect x="923" y="31" width="12" height="10" fill="#ff00ff" style=""></rect></g><g id="B-0-13" style="cursor:pointer"><rect x="936" y="0" width="130" height="72" fill="none" style=""></rect></g><g id="B-0-14" style="cursor:pointer"><path d="M1067,36 L1110,0 1110,72Z" fill="url('#linearGradientSl9r1v0cq7r')" stroke="#8c0099" style="stroke-width: 0.5;"></path><path d="M1067,36 L1110,0 1110,72Z" fill="url('#linearGradientSl9r1v0cq7t')" stroke="none" style="stroke-width: 0.5;" transform="matrix(0.8372,0,0,-0.8611,177.1977,67)"></path><text x="1104" y="41" fill="#ffffff" style="filter: url(&quot;#glow&quot;); text-anchor: end; font-size: 15px;">PAC</text><text x="1104" y="41" fill="#000000" style="text-anchor: end; font-size: 15px;">PAC</text></g><g id="B-0-15" style="cursor:pointer"><rect x="1111" y="0" width="108" height="72" fill="none" style=""></rect></g><g id="B-0-16" style="cursor:pointer"><path d="M1220,14.4 L1381.6,0 1422,36 1381.6,72 1220,57.6 Z" fill="url('#linearGradientSl9r1v0cq84')" stroke="#218219" style="stroke-width: 0.5;"></path><path d="M1220,14.4 L1381.6,0 1422,36 1381.6,72 1220,57.6 Z" fill="url('#linearGradientSl9r1v0cq86')" stroke="none" style="stroke-width: 0.5;" transform="matrix(0.9653,0,0,-0.9028,45.7772,68.5)"></path><text x="1321" y="42.666666666666664" fill="#ffffff" style="filter: url(&quot;#glow&quot;); text-anchor: middle; font-size: 20px;">START</text><text x="1321" y="42.666666666666664" fill="#000000" style="text-anchor: middle; font-size: 20px;">START</text></g><line x1="0" x2="1425" y1="100" y2="100" stroke="#dddddd" style="stroke-width: 0.1;"></line><line x1="0" x2="0" y1="100" y2="104" stroke="#333333" style="stroke-width: 0.5;"></line><text x="1" y="108" style="font-weight: normal; font-size: 8px; color: rgb(51, 51, 51);">0</text><line x1="50" x2="50" y1="100" y2="102" stroke="#888888" style="stroke-width: 0.1;"></line><line x1="100" x2="100" y1="100" y2="104" stroke="#333333" style="stroke-width: 0.5;"></line><text x="101" y="108" style="font-weight: normal; font-size: 8px; color: rgb(51, 51, 51);">100</text><line x1="150" x2="150" y1="100" y2="102" stroke="#888888" style="stroke-width: 0.1;"></line><line x1="200" x2="200" y1="100" y2="104" stroke="#333333" style="stroke-width: 0.5;"></line><text x="201" y="108" style="font-weight: normal; font-size: 8px; color: rgb(51, 51, 51);">200</text><line x1="250" x2="250" y1="100" y2="102" stroke="#888888" style="stroke-width: 0.1;"></line><line x1="300" x2="300" y1="100" y2="104" stroke="#333333" style="stroke-width: 0.5;"></line><text x="301" y="108" style="font-weight: normal; font-size: 8px; color: rgb(51, 51, 51);">300</text><line x1="350" x2="350" y1="100" y2="102" stroke="#888888" style="stroke-width: 0.1;"></line><line x1="400" x2="400" y1="100" y2="104" stroke="#333333" style="stroke-width: 0.5;"></line><text x="401" y="108" style="font-weight: normal; font-size: 8px; color: rgb(51, 51, 51);">400</text><line x1="450" x2="450" y1="100" y2="102" stroke="#888888" style="stroke-width: 0.1;"></line><line x1="500" x2="500" y1="100" y2="104" stroke="#333333" style="stroke-width: 0.5;"></line><text x="501" y="108" style="font-weight: normal; font-size: 8px; color: rgb(51, 51, 51);">500</text><line x1="550" x2="550" y1="100" y2="102" stroke="#888888" style="stroke-width: 0.1;"></line><line x1="600" x2="600" y1="100" y2="104" stroke="#333333" style="stroke-width: 0.5;"></line><text x="601" y="108" style="font-weight: normal; font-size: 8px; color: rgb(51, 51, 51);">600</text><line x1="650" x2="650" y1="100" y2="102" stroke="#888888" style="stroke-width: 0.1;"></line><line x1="700" x2="700" y1="100" y2="104" stroke="#333333" style="stroke-width: 0.5;"></line><text x="701" y="108" style="font-weight: normal; font-size: 8px; color: rgb(51, 51, 51);">700</text><line x1="750" x2="750" y1="100" y2="102" stroke="#888888" style="stroke-width: 0.1;"></line><line x1="800" x2="800" y1="100" y2="104" stroke="#333333" style="stroke-width: 0.5;"></line><text x="801" y="108" style="font-weight: normal; font-size: 8px; color: rgb(51, 51, 51);">800</text><line x1="850" x2="850" y1="100" y2="102" stroke="#888888" style="stroke-width: 0.1;"></line><line x1="900" x2="900" y1="100" y2="104" stroke="#333333" style="stroke-width: 0.5;"></line><text x="901" y="108" style="font-weight: normal; font-size: 8px; color: rgb(51, 51, 51);">900</text><line x1="950" x2="950" y1="100" y2="102" stroke="#888888" style="stroke-width: 0.1;"></line><line x1="1000" x2="1000" y1="100" y2="104" stroke="#333333" style="stroke-width: 0.5;"></line><text x="1001" y="108" style="font-weight: normal; font-size: 8px; color: rgb(51, 51, 51);">1000</text><line x1="1050" x2="1050" y1="100" y2="102" stroke="#888888" style="stroke-width: 0.1;"></line><line x1="1100" x2="1100" y1="100" y2="104" stroke="#333333" style="stroke-width: 0.5;"></line><text x="1101" y="108" style="font-weight: normal; font-size: 8px; color: rgb(51, 51, 51);">1100</text><line x1="1150" x2="1150" y1="100" y2="102" stroke="#888888" style="stroke-width: 0.1;"></line><line x1="1200" x2="1200" y1="100" y2="104" stroke="#333333" style="stroke-width: 0.5;"></line><text x="1201" y="108" style="font-weight: normal; font-size: 8px; color: rgb(51, 51, 51);">1200</text><line x1="1250" x2="1250" y1="100" y2="102" stroke="#888888" style="stroke-width: 0.1;"></line><line x1="1300" x2="1300" y1="100" y2="104" stroke="#333333" style="stroke-width: 0.5;"></line><text x="1301" y="108" style="font-weight: normal; font-size: 8px; color: rgb(51, 51, 51);">1300</text><line x1="1350" x2="1350" y1="100" y2="102" stroke="#888888" style="stroke-width: 0.1;"></line><line x1="1400" x2="1400" y1="100" y2="104" stroke="#333333" style="stroke-width: 0.5;"></line><text x="1401" y="108" style="font-weight: normal; font-size: 8px; color: rgb(51, 51, 51);">1400</text><rect x="0" y="90" width="1425" height="110" fill="none" style="cursor: pointer;"></rect></g><g id="markGrp"></g><g id="hlGrp"></g><g id="markGrp"></g><g id="hlGrp"></g><g id="markGrp"></g><g id="hlGrp"></g></svg>