<svg id="proteinDrawer" viewBox="0 0 1166 120" width="1166" height="100%" background="#ff0000" xmlns="http://www.w3.org/2000/svg"><desc>Created with Snap</desc><defs><linearGradient x1="0" y1="0" x2="1" y2="0" id="linearGradientSl9r1uhhp6"><stop offset="0%" stop-color="#ffffff"></stop><stop offset="100%" stop-color="#ff0066"></stop></linearGradient><linearGradient x1="0" y1="0" x2="1" y2="0" id="linearGradientSl9r1uhhp8"><stop offset="0%" stop-color="#ff0066"></stop><stop offset="100%" stop-color="#ffffff"></stop></linearGradient><linearGradient x1="0" y1="0" x2="1" y2="0" id="linearGradientSl9r1uhhpy"><stop offset="0%" stop-color="#ffffff"></stop><stop offset="100%" stop-color="#8c0099"></stop></linearGradient><linearGradient x1="0" y1="0" x2="1" y2="0" id="linearGradientSl9r1uhhp10"><stop offset="0%" stop-color="#8c0099"></stop><stop offset="100%" stop-color="#ffffff"></stop></linearGradient><linearGradient x1="0" y1="0" x2="1" y2="0" id="linearGradientSl9r1uhhp1b"><stop offset="0%" stop-color="#ffffff"></stop><stop offset="100%" stop-color="#218219"></stop></linearGradient><linearGradient x1="0" y1="0" x2="1" y2="0" id="linearGradientSl9r1uhhp1d"><stop offset="0%" stop-color="#218219"></stop><stop offset="100%" stop-color="#ffffff"></stop></linearGradient><linearGradient x1="0" y1="0" x2="1" y2="0" id="linearGradientSl9r1uhhp2q"><stop offset="0%" stop-color="#ffffff"></stop><stop offset="100%" stop-color="#ff0066"></stop></linearGradient><linearGradient x1="0" y1="0" x2="1" y2="0" id="linearGradientSl9r1uhhp2s"><stop offset="0%" stop-color="#ff0066"></stop><stop offset="100%" stop-color="#ffffff"></stop></linearGradient><linearGradient x1="0" y1="0" x2="1" y2="0" id="linearGradientSl9r1uhhp3i"><stop offset="0%" stop-color="#ffffff"></stop><stop offset="100%" stop-color="#00cc00"></stop></linearGradient><linearGradient x1="0" y1="0" x2="1" y2="0" id="linearGradientSl9r1uhhp3k"><stop offset="0%" stop-color="#00cc00"></stop><stop offset="100%" stop-color="#ffffff"></stop></linearGradient><linearGradient x1="0" y1="0" x2="1" y2="0" id="linearGradientSl9r1uhhp3v"><stop offset="0%" stop-color="#ffffff"></stop><stop offset="100%" stop-color="#218219"></stop></linearGradient><linearGradient x1="0" y1="0" x2="1" y2="0" id="linearGradientSl9r1uhhp3x"><stop offset="0%" stop-color="#218219"></stop><stop offset="100%" stop-color="#ffffff"></stop></linearGradient><linearGradient x1="0" y1="0" x2="1" y2="0" id="linearGradientSl9r1uhhp5a"><stop offset="0%" stop-color="#ffffff"></stop><stop offset="100%" stop-color="#ff0066"></stop></linearGradient><linearGradient x1="0" y1="0" x2="1" y2="0" id="linearGradientSl9r1uhhp5c"><stop offset="0%" stop-color="#ff0066"></stop><stop offset="100%" stop-color="#ffffff"></stop></linearGradient><linearGradient x1="0" y1="0" x2="1" y2="0" id="linearGradientSl9r1uhhp62"><stop offset="0%" stop-color="#ffffff"></stop><stop offset="100%" stop-color="#8c0099"></stop></linearGradient><linearGradient x1="0" y1="0" x2="1" y2="0" id="linearGradientSl9r1uhhp64"><stop offset="0%" stop-color="#8c0099"></stop><stop offset="100%" stop-color="#ffffff"></stop></linearGradient><linearGradient x1="0" y1="0" x2="1" y2="0" id="linearGradientSl9r1uhhp6f"><stop offset="0%" stop-color="#ffffff"></stop><stop offset="100%" stop-color="#218219"></stop></linearGradient><linearGradient x1="0" y1="0" x2="1" y2="0" id="linearGradientSl9r1uhhp6h"><stop offset="0%" stop-color="#218219"></stop><stop offset="100%" stop-color="#ffffff"></stop></linearGradient><linearGradient x1="0" y1="0" x2="1" y2="0" id="linearGradientSl9r1uhhp7u"><stop offset="0%" stop-color="#ffffff"></stop><stop offset="100%" stop-color="#ff0066"></stop></linearGradient><linearGradient x1="0" y1="0" x2="1" y2="0" id="linearGradientSl9r1uhhp7w"><stop offset="0%" stop-color="#ff0066"></stop><stop offset="100%" stop-color="#ffffff"></stop></linearGradient><linearGradient x1="0" y1="0" x2="1" y2="0" id="linearGradientSl9r1uhhp8m"><stop offset="0%" stop-color="#ffffff"></stop><stop offset="100%" stop-color="#00cc00"></stop></linearGradient><linearGradient x1="0" y1="0" x2="1" y2="0" id="linearGradientSl9r1uhhp8o"><stop offset="0%" stop-color="#00cc00"></stop><stop offset="100%" stop-color="#ffffff"></stop></linearGradient><linearGradient x1="0" y1="0" x2="1" y2="0" id="linearGradientSl9r1uhhp8z"><stop offset="0%" stop-color="#ffffff"></stop><stop offset="100%" stop-color="#218219"></stop></linearGradient><linearGradient x1="0" y1="0" x2="1" y2="0" id="linearGradientSl9r1uhhp91"><stop offset="0%" stop-color="#218219"></stop><stop offset="100%" stop-color="#ffffff"></stop></linearGradient><linearGradient x1="0" y1="0" x2="1" y2="0" id="linearGradientSl9r1uhhpae"><stop offset="0%" stop-color="#ffffff"></stop><stop offset="100%" stop-color="#ff0066"></stop></linearGradient><linearGradient x1="0" y1="0" x2="1" y2="0" id="linearGradientSl9r1uhhpag"><stop offset="0%" stop-color="#ff0066"></stop><stop offset="100%" stop-color="#ffffff"></stop></linearGradient><linearGradient x1="0" y1="0" x2="1" y2="0" id="linearGradientSl9r1uhhpb6"><stop offset="0%" stop-color="#ffffff"></stop><stop offset="100%" stop-color="#8c0099"></stop></linearGradient><linearGradient x1="0" y1="0" x2="1" y2="0" id="linearGradientSl9r1uhhpb8"><stop offset="0%" stop-color="#8c0099"></stop><stop offset="100%" stop-color="#ffffff"></stop></linearGradient><linearGradient x1="0" y1="0" x2="1" y2="0" id="linearGradientSl9r1uhhpbj"><stop offset="0%" stop-color="#ffffff"></stop><stop offset="100%" stop-color="#218219"></stop></linearGradient><linearGradient x1="0" y1="0" x2="1" y2="0" id="linearGradientSl9r1uhhpbl"><stop offset="0%" stop-color="#218219"></stop><stop offset="100%" stop-color="#ffffff"></stop></linearGradient><linearGradient x1="0" y1="0" x2="1" y2="0" id="linearGradientSl9r1uhhpcy"><stop offset="0%" stop-color="#ffffff"></stop><stop offset="100%" stop-color="#ff0066"></stop></linearGradient><linearGradient x1="0" y1="0" x2="1" y2="0" id="linearGradientSl9r1uhhpd0"><stop offset="0%" stop-color="#ff0066"></stop><stop offset="100%" stop-color="#ffffff"></stop></linearGradient><linearGradient x1="0" y1="0" x2="1" y2="0" id="linearGradientSl9r1uhhpdq"><stop offset="0%" stop-color="#ffffff"></stop><stop offset="100%" stop-color="#00cc00"></stop></linearGradient><linearGradient x1="0" y1="0" x2="1" y2="0" id="linearGradientSl9r1uhhpds"><stop offset="0%" stop-color="#00cc00"></stop><stop offset="100%" stop-color="#ffffff"></stop></linearGradient><linearGradient x1="0" y1="0" x2="1" y2="0" id="linearGradientSl9r1uhhpe3"><stop offset="0%" stop-color="#ffffff"></stop><stop offset="100%" stop-color="#218219"></stop></linearGradient><linearGradient x1="0" y1="0" x2="1" y2="0" id="linearGradientSl9r1uhhpe5"><stop offset="0%" stop-color="#218219"></stop><stop offset="100%" stop-color="#ffffff"></stop></linearGradient><linearGradient x1="0" y1="0" x2="1" y2="0" id="linearGradientSl9r1uhhpfi"><stop offset="0%" stop-color="#ffffff"></stop><stop offset="100%" stop-color="#ff0066"></stop></linearGradient><linearGradient x1="0" y1="0" x2="1" y2="0" id="linearGradientSl9r1uhhpfk"><stop offset="0%" stop-color="#ff0066"></stop><stop offset="100%" stop-color="#ffffff"></stop></linearGradient><linearGradient x1="0" y1="0" x2="1" y2="0" id="linearGradientSl9r1uhhpga"><stop offset="0%" stop-color="#ffffff"></stop><stop offset="100%" stop-color="#8c0099"></stop></linearGradient><linearGradient x1="0" y1="0" x2="1" y2="0" id="linearGradientSl9r1uhhpgc"><stop offset="0%" stop-color="#8c0099"></stop><stop offset="100%" stop-color="#ffffff"></stop></linearGradient><linearGradient x1="0" y1="0" x2="1" y2="0" id="linearGradientSl9r1uhhpgn"><stop offset="0%" stop-color="#ffffff"></stop><stop offset="100%" stop-color="#218219"></stop></linearGradient><linearGradient x1="0" y1="0" x2="1" y2="0" id="linearGradientSl9r1uhhpgp"><stop offset="0%" stop-color="#218219"></stop><stop offset="100%" stop-color="#ffffff"></stop></linearGradient><linearGradient x1="0" y1="0" x2="1" y2="0" id="linearGradientSl9r1uhhpi2"><stop offset="0%" stop-color="#ffffff"></stop><stop offset="100%" stop-color="#ff0066"></stop></linearGradient><linearGradient x1="0" y1="0" x2="1" y2="0" id="linearGradientSl9r1uhhpi4"><stop offset="0%" stop-color="#ff0066"></stop><stop offset="100%" stop-color="#ffffff"></stop></linearGradient><linearGradient x1="0" y1="0" x2="1" y2="0" id="linearGradientSl9r1uhhpiu"><stop offset="0%" stop-color="#ffffff"></stop><stop offset="100%" stop-color="#00cc00"></stop></linearGradient><linearGradient x1="0" y1="0" x2="1" y2="0" id="linearGradientSl9r1uhhpiw"><stop offset="0%" stop-color="#00cc00"></stop><stop offset="100%" stop-color="#ffffff"></stop></linearGradient><linearGradient x1="0" y1="0" x2="1" y2="0" id="linearGradientSl9r1uhhpj7"><stop offset="0%" stop-color="#ffffff"></stop><stop offset="100%" stop-color="#218219"></stop></linearGradient><linearGradient x1="0" y1="0" x2="1" y2="0" id="linearGradientSl9r1uhhpj9"><stop offset="0%" stop-color="#218219"></stop><stop offset="100%" stop-color="#ffffff"></stop></linearGradient><linearGradient x1="0" y1="0" x2="1" y2="0" id="linearGradientSl9r1uhhpkm"><stop offset="0%" stop-color="#ffffff"></stop><stop offset="100%" stop-color="#ff0066"></stop></linearGradient><linearGradient x1="0" y1="0" x2="1" y2="0" id="linearGradientSl9r1uhhpko"><stop offset="0%" stop-color="#ff0066"></stop><stop offset="100%" stop-color="#ffffff"></stop></linearGradient><linearGradient x1="0" y1="0" x2="1" y2="0" id="linearGradientSl9r1uhhple"><stop offset="0%" stop-color="#ffffff"></stop><stop offset="100%" stop-color="#8c0099"></stop></linearGradient><linearGradient x1="0" y1="0" x2="1" y2="0" id="linearGradientSl9r1uhhplg"><stop offset="0%" stop-color="#8c0099"></stop><stop offset="100%" stop-color="#ffffff"></stop></linearGradient><linearGradient x1="0" y1="0" x2="1" y2="0" id="linearGradientSl9r1uhhplr"><stop offset="0%" stop-color="#ffffff"></stop><stop offset="100%" stop-color="#218219"></stop></linearGradient><linearGradient x1="0" y1="0" x2="1" y2="0" id="linearGradientSl9r1uhhplt"><stop offset="0%" stop-color="#218219"></stop><stop offset="100%" stop-color="#ffffff"></stop></linearGradient><linearGradient x1="0" y1="0" x2="1" y2="0" id="linearGradientSl9r1uhhpn6"><stop offset="0%" stop-color="#ffffff"></stop><stop offset="100%" stop-color="#ff0066"></stop></linearGradient><linearGradient x1="0" y1="0" x2="1" y2="0" id="linearGradientSl9r1uhhpn8"><stop offset="0%" stop-color="#ff0066"></stop><stop offset="100%" stop-color="#ffffff"></stop></linearGradient><linearGradient x1="0" y1="0" x2="1" y2="0" id="linearGradientSl9r1uhhpny"><stop offset="0%" stop-color="#ffffff"></stop><stop offset="100%" stop-color="#00cc00"></stop></linearGradient><linearGradient x1="0" y1="0" x2="1" y2="0" id="linearGradientSl9r1uhhpo0"><stop offset="0%" stop-color="#00cc00"></stop><stop offset="100%" stop-color="#ffffff"></stop></linearGradient><linearGradient x1="0" y1="0" x2="1" y2="0" id="linearGradientSl9r1uhhpob"><stop offset="0%" stop-color="#ffffff"></stop><stop offset="100%" stop-color="#218219"></stop></linearGradient><linearGradient x1="0" y1="0" x2="1" y2="0" id="linearGradientSl9r1uhhpod"><stop offset="0%" stop-color="#218219"></stop><stop offset="100%" stop-color="#ffffff"></stop></linearGradient><linearGradient x1="0" y1="0" x2="1" y2="0" id="linearGradientSl9r1uhhppq"><stop offset="0%" stop-color="#ffffff"></stop><stop offset="100%" stop-color="#ff0066"></stop></linearGradient><linearGradient x1="0" y1="0" x2="1" y2="0" id="linearGradientSl9r1uhhpps"><stop offset="0%" stop-color="#ff0066"></stop><stop offset="100%" stop-color="#ffffff"></stop></linearGradient><linearGradient x1="0" y1="0" x2="1" y2="0" id="linearGradientSl9r1uhhpqi"><stop offset="0%" stop-color="#ffffff"></stop><stop offset="100%" stop-color="#8c0099"></stop></linearGradient><linearGradient x1="0" y1="0" x2="1" y2="0" id="linearGradientSl9r1uhhpqk"><stop offset="0%" stop-color="#8c0099"></stop><stop offset="100%" stop-color="#ffffff"></stop></linearGradient><linearGradient x1="0" y1="0" x2="1" y2="0" id="linearGradientSl9r1uhhpqv"><stop offset="0%" stop-color="#ffffff"></stop><stop offset="100%" stop-color="#218219"></stop></linearGradient><linearGradient x1="0" y1="0" x2="1" y2="0" id="linearGradientSl9r1uhhpqx"><stop offset="0%" stop-color="#218219"></stop><stop offset="100%" stop-color="#ffffff"></stop></linearGradient><linearGradient x1="0" y1="0" x2="1" y2="0" id="linearGradientSl9r1uhhpsa"><stop offset="0%" stop-color="#ffffff"></stop><stop offset="100%" stop-color="#ff0066"></stop></linearGradient><linearGradient x1="0" y1="0" x2="1" y2="0" id="linearGradientSl9r1uhhpsc"><stop offset="0%" stop-color="#ff0066"></stop><stop offset="100%" stop-color="#ffffff"></stop></linearGradient><linearGradient x1="0" y1="0" x2="1" y2="0" id="linearGradientSl9r1uhhpt2"><stop offset="0%" stop-color="#ffffff"></stop><stop offset="100%" stop-color="#00cc00"></stop></linearGradient><linearGradient x1="0" y1="0" x2="1" y2="0" id="linearGradientSl9r1uhhpt4"><stop offset="0%" stop-color="#00cc00"></stop><stop offset="100%" stop-color="#ffffff"></stop></linearGradient><linearGradient x1="0" y1="0" x2="1" y2="0" id="linearGradientSl9r1uhhptf"><stop offset="0%" stop-color="#ffffff"></stop><stop offset="100%" stop-color="#218219"></stop></linearGradient><linearGradient x1="0" y1="0" x2="1" y2="0" id="linearGradientSl9r1uhhpth"><stop offset="0%" stop-color="#218219"></stop><stop offset="100%" stop-color="#ffffff"></stop></linearGradient><linearGradient x1="0" y1="0" x2="1" y2="0" id="linearGradientSl9r1uhhpuu"><stop offset="0%" stop-color="#ffffff"></stop><stop offset="100%" stop-color="#ff0066"></stop></linearGradient><linearGradient x1="0" y1="0" x2="1" y2="0" id="linearGradientSl9r1uhhpuw"><stop offset="0%" stop-color="#ff0066"></stop><stop offset="100%" stop-color="#ffffff"></stop></linearGradient><linearGradient x1="0" y1="0" x2="1" y2="0" id="linearGradientSl9r1uhhpvm"><stop offset="0%" stop-color="#ffffff"></stop><stop offset="100%" stop-color="#8c0099"></stop></linearGradient><linearGradient x1="0" y1="0" x2="1" y2="0" id="linearGradientSl9r1uhhpvo"><stop offset="0%" stop-color="#8c0099"></stop><stop offset="100%" stop-color="#ffffff"></stop></linearGradient><linearGradient x1="0" y1="0" x2="1" y2="0" id="linearGradientSl9r1uhhpvz"><stop offset="0%" stop-color="#ffffff"></stop><stop offset="100%" stop-color="#218219"></stop></linearGradient><linearGradient x1="0" y1="0" x2="1" y2="0" id="linearGradientSl9r1uhhpw1"><stop offset="0%" stop-color="#218219"></stop><stop offset="100%" stop-color="#ffffff"></stop></linearGradient></defs><defs><filter id="glow" x="-20%" y="-20%" width="150%" height="150%"><feGaussianBlur stdDeviation="3 3" result="glow"></feGaussianBlur><feMerge><feMergeNode in="glow"></feMergeNode><feMergeNode in="glow"></feMergeNode><feMergeNode in="glow"></feMergeNode></feMerge></filter><style type="text/css"> text { font-family: arial; font-weight:bold; } </style></defs><g id="protein" transform="matrix(1,0,0,1,0,10)"><rect x="0" y="33" width="1066" height="6" fill="#bbbbbb" style=""></rect><g id="B-0-0" style="cursor:pointer"><rect x="1" y="0" width="8" height="72" fill="none" style=""></rect></g><g id="B-0-1" style="cursor:pointer"><path d="M10,36 L77,0 77,72Z" fill="url('#linearGradientSl9r1uhhpuu')" stroke="#ff0066" style="stroke-width: 0.5;"></path><path d="M10,36 L77,0 77,72Z" fill="url('#linearGradientSl9r1uhhpuw')" stroke="none" style="stroke-width: 0.5;" transform="matrix(0.8955,0,0,-0.8611,4.5448,67)"></path><text x="71" y="42.666666666666664" fill="#ffffff" style="filter: url(&quot;#glow&quot;); text-anchor: end; font-size: 20px;">SAM</text><text x="71" y="42.666666666666664" fill="#000000" style="text-anchor: end; font-size: 20px;">SAM</text></g><g id="B-0-2" style="cursor:pointer"><rect x="78" y="0" width="69" height="72" fill="none" style=""></rect></g><g id="B-0-3" style="cursor:pointer"><rect x="148" y="0" width="15" height="72" fill="none" style=""></rect><rect x="148" y="31" width="15" height="10" fill="#ff00ff" style=""></rect></g><g id="B-0-4" style="cursor:pointer"><rect x="164" y="0" width="119" height="72" fill="none" style=""></rect></g><g id="B-0-5" style="cursor:pointer"><rect x="284" y="0" width="17" height="72" fill="none" style=""></rect><rect x="284" y="31" width="17" height="10" fill="#ff00ff" style=""></rect></g><g id="B-0-6" style="cursor:pointer"><rect x="302" y="0" width="261" height="72" fill="none" style=""></rect></g><g id="B-0-7" style="cursor:pointer"><rect x="564" y="0" width="12" height="72" fill="none" style=""></rect><rect x="564" y="31" width="12" height="10" fill="#ff00ff" style=""></rect></g><g id="B-0-8" style="cursor:pointer"><rect x="577" y="0" width="130" height="72" fill="none" style=""></rect></g><g id="B-0-9" style="cursor:pointer"><path d="M708,36 L751,0 751,72Z" fill="url('#linearGradientSl9r1uhhpvm')" stroke="#8c0099" style="stroke-width: 0.5;"></path><path d="M708,36 L751,0 751,72Z" fill="url('#linearGradientSl9r1uhhpvo')" stroke="none" style="stroke-width: 0.5;" transform="matrix(0.8372,0,0,-0.8611,118.7558,67)"></path><text x="745" y="41" fill="#ffffff" style="filter: url(&quot;#glow&quot;); text-anchor: end; font-size: 15px;">PAC</text><text x="745" y="41" fill="#000000" style="text-anchor: end; font-size: 15px;">PAC</text></g><g id="B-0-10" style="cursor:pointer"><rect x="752" y="0" width="108" height="72" fill="none" style=""></rect></g><g id="B-0-11" style="cursor:pointer"><path d="M861,14.4 L1022.6,0 1063,36 1022.6,72 861,57.6 Z" fill="url('#linearGradientSl9r1uhhpvz')" stroke="#218219" style="stroke-width: 0.5;"></path><path d="M861,14.4 L1022.6,0 1063,36 1022.6,72 861,57.6 Z" fill="url('#linearGradientSl9r1uhhpw1')" stroke="none" style="stroke-width: 0.5;" transform="matrix(0.9653,0,0,-0.9028,33.3366,68.5)"></path><text x="962" y="42.666666666666664" fill="#ffffff" style="filter: url(&quot;#glow&quot;); text-anchor: middle; font-size: 20px;">START</text><text x="962" y="42.666666666666664" fill="#000000" style="text-anchor: middle; font-size: 20px;">START</text></g><line x1="0" x2="1066" y1="100" y2="100" stroke="#dddddd" style="stroke-width: 0.1;"></line><line x1="0" x2="0" y1="100" y2="104" stroke="#333333" style="stroke-width: 0.5;"></line><text x="1" y="108" style="font-weight: normal; font-size: 8px; color: rgb(51, 51, 51);">0</text><line x1="50" x2="50" y1="100" y2="102" stroke="#888888" style="stroke-width: 0.1;"></line><line x1="100" x2="100" y1="100" y2="104" stroke="#333333" style="stroke-width: 0.5;"></line><text x="101" y="108" style="font-weight: normal; font-size: 8px; color: rgb(51, 51, 51);">100</text><line x1="150" x2="150" y1="100" y2="102" stroke="#888888" style="stroke-width: 0.1;"></line><line x1="200" x2="200" y1="100" y2="104" stroke="#333333" style="stroke-width: 0.5;"></line><text x="201" y="108" style="font-weight: normal; font-size: 8px; color: rgb(51, 51, 51);">200</text><line x1="250" x2="250" y1="100" y2="102" stroke="#888888" style="stroke-width: 0.1;"></line><line x1="300" x2="300" y1="100" y2="104" stroke="#333333" style="stroke-width: 0.5;"></line><text x="301" y="108" style="font-weight: normal; font-size: 8px; color: rgb(51, 51, 51);">300</text><line x1="350" x2="350" y1="100" y2="102" stroke="#888888" style="stroke-width: 0.1;"></line><line x1="400" x2="400" y1="100" y2="104" stroke="#333333" style="stroke-width: 0.5;"></line><text x="401" y="108" style="font-weight: normal; font-size: 8px; color: rgb(51, 51, 51);">400</text><line x1="450" x2="450" y1="100" y2="102" stroke="#888888" style="stroke-width: 0.1;"></line><line x1="500" x2="500" y1="100" y2="104" stroke="#333333" style="stroke-width: 0.5;"></line><text x="501" y="108" style="font-weight: normal; font-size: 8px; color: rgb(51, 51, 51);">500</text><line x1="550" x2="550" y1="100" y2="102" stroke="#888888" style="stroke-width: 0.1;"></line><line x1="600" x2="600" y1="100" y2="104" stroke="#333333" style="stroke-width: 0.5;"></line><text x="601" y="108" style="font-weight: normal; font-size: 8px; color: rgb(51, 51, 51);">600</text><line x1="650" x2="650" y1="100" y2="102" stroke="#888888" style="stroke-width: 0.1;"></line><line x1="700" x2="700" y1="100" y2="104" stroke="#333333" style="stroke-width: 0.5;"></line><text x="701" y="108" style="font-weight: normal; font-size: 8px; color: rgb(51, 51, 51);">700</text><line x1="750" x2="750" y1="100" y2="102" stroke="#888888" style="stroke-width: 0.1;"></line><line x1="800" x2="800" y1="100" y2="104" stroke="#333333" style="stroke-width: 0.5;"></line><text x="801" y="108" style="font-weight: normal; font-size: 8px; color: rgb(51, 51, 51);">800</text><line x1="850" x2="850" y1="100" y2="102" stroke="#888888" style="stroke-width: 0.1;"></line><line x1="900" x2="900" y1="100" y2="104" stroke="#333333" style="stroke-width: 0.5;"></line><text x="901" y="108" style="font-weight: normal; font-size: 8px; color: rgb(51, 51, 51);">900</text><line x1="950" x2="950" y1="100" y2="102" stroke="#888888" style="stroke-width: 0.1;"></line><line x1="1000" x2="1000" y1="100" y2="104" stroke="#333333" style="stroke-width: 0.5;"></line><text x="1001" y="108" style="font-weight: normal; font-size: 8px; color: rgb(51, 51, 51);">1000</text><line x1="1050" x2="1050" y1="100" y2="102" stroke="#888888" style="stroke-width: 0.1;"></line><rect x="0" y="90" width="1066" height="110" fill="none" style="cursor: pointer;"></rect></g><g id="markGrp"></g><g id="hlGrp"></g><g id="markGrp"></g><g id="hlGrp"></g><g id="markGrp"></g><g id="hlGrp"></g><g id="markGrp"></g><g id="hlGrp"></g><g id="markGrp"></g><g id="hlGrp"></g><g id="markGrp"></g><g id="hlGrp"></g><g id="markGrp"></g><g id="hlGrp"></g><g id="markGrp"></g><g id="hlGrp"></g><g id="markGrp"></g><g id="hlGrp"></g><g id="markGrp"></g><g id="hlGrp"></g><g id="markGrp"></g><g id="hlGrp"></g><g id="markGrp"></g><g id="hlGrp"></g><g id="markGrp"></g><g id="hlGrp"></g></svg>